<mxfile host="app.diagrams.net" agent="Mozilla/5.0 (X11; Linux x86_64) AppleWebKit/537.36 (KHTML, like Gecko) Chrome/128.0.0.0 Safari/537.36" version="24.8.4">
  <diagram name="Page-1" id="3XYw_itv9GH--WRUSs52">
    <mxGraphModel dx="1434" dy="787" grid="1" gridSize="10" guides="1" tooltips="1" connect="1" arrows="1" fold="1" page="1" pageScale="1" pageWidth="850" pageHeight="1100" math="0" shadow="0">
      <root>
        <mxCell id="0" />
        <mxCell id="1" parent="0" />
        <mxCell id="hFQVWKhXuX3PQQcwiS1q-6" value="" style="rounded=0;whiteSpace=wrap;html=1;fillColor=#f5f5f5;fontColor=#333333;strokeColor=#666666;dashed=1;" vertex="1" parent="1">
          <mxGeometry x="530" y="180" width="230" height="460" as="geometry" />
        </mxCell>
        <mxCell id="hFQVWKhXuX3PQQcwiS1q-1" value="&lt;font style=&quot;font-size: 30px;&quot;&gt;a&lt;/font&gt;" style="ellipse;whiteSpace=wrap;html=1;aspect=fixed;fillColor=#dae8fc;strokeColor=#6c8ebf;" vertex="1" parent="1">
          <mxGeometry x="110" y="300" width="80" height="80" as="geometry" />
        </mxCell>
        <mxCell id="hFQVWKhXuX3PQQcwiS1q-2" value="&lt;font style=&quot;font-size: 30px;&quot;&gt;b&lt;/font&gt;" style="ellipse;whiteSpace=wrap;html=1;aspect=fixed;fillColor=#d5e8d4;strokeColor=#82b366;" vertex="1" parent="1">
          <mxGeometry x="110" y="440" width="80" height="80" as="geometry" />
        </mxCell>
        <mxCell id="hFQVWKhXuX3PQQcwiS1q-3" value="" style="rounded=0;whiteSpace=wrap;html=1;" vertex="1" parent="1">
          <mxGeometry x="555" y="200" width="180" height="190" as="geometry" />
        </mxCell>
        <mxCell id="hFQVWKhXuX3PQQcwiS1q-5" value="" style="endArrow=classic;html=1;rounded=0;entryX=0;entryY=0.5;entryDx=0;entryDy=0;" edge="1" parent="1" target="hFQVWKhXuX3PQQcwiS1q-3">
          <mxGeometry width="50" height="50" relative="1" as="geometry">
            <mxPoint x="190" y="340" as="sourcePoint" />
            <mxPoint x="340" y="360" as="targetPoint" />
          </mxGeometry>
        </mxCell>
        <mxCell id="hFQVWKhXuX3PQQcwiS1q-8" value="" style="endArrow=classic;html=1;rounded=0;" edge="1" parent="1" target="hFQVWKhXuX3PQQcwiS1q-3">
          <mxGeometry width="50" height="50" relative="1" as="geometry">
            <mxPoint x="190" y="480" as="sourcePoint" />
            <mxPoint x="240" y="430" as="targetPoint" />
          </mxGeometry>
        </mxCell>
      </root>
    </mxGraphModel>
  </diagram>
</mxfile>
